<?xml version="1.0" encoding="utf-8"?>
<!-- Generator: Adobe Illustrator 21.0.2, SVG Export Plug-In . SVG Version: 6.00 Build 0)  -->
<svg version="1.1" xmlns="http://www.w3.org/2000/svg" xmlns:xlink="http://www.w3.org/1999/xlink" x="0px" y="0px"
	 viewBox="0 0 32 32" enable-background="new 0 0 32 32" xml:space="preserve">
<g id="Layer_6" display="none">
	<rect x="-44.38" y="-26.385" display="inline" fill="#7FFFF6" width="441.714" height="246.789"/>
</g>
<g id="Layer_4_copy_5">
	<g>
		<g>
			<polygon fill="#333333" points="16,0 2.5,0 2.5,24.5 16,32 29.5,24.5 29.5,0 			"/>
		</g>
		<g>
			<g>
				<polygon points="4.121,23.322 4.121,1.672 27.879,1.672 27.879,23.322 16,29.922 				"/>
			</g>
			<g>
				<path fill="#FF0000" d="M27.629,1.922v21.254L16,29.636l-11.629-6.46V1.922H16H27.629 M28.129,1.422H16H3.871V23.47L16,30.208
					l12.129-6.738V1.422L28.129,1.422z"/>
			</g>
		</g>
		<g>
			<g opacity="0.15">
				<polygon fill="#FFFFFF" points="3.871,1.422 28.129,1.422 28.129,7.998 3.871,14.529 				"/>
			</g>
			<g opacity="0.3">
				<polygon fill="#FFFFFF" points="3.871,1.422 28.129,1.422 28.129,4.71 3.871,11.241 				"/>
			</g>
		</g>
	</g>
	<g>
		<path fill="#FFFFFF" d="M13.892,22.123h3.357v-8.124h2.239l0.297-2.799h-2.536l0.003-1.402c0-0.73,0.07-1.121,1.117-1.121h1.4
			v-2.8h-2.24c-2.69,0-3.637,1.358-3.637,3.642V11.2h-1.677V14h1.677V22.123z"/>
	</g>
</g>
</svg>
