<?xml version="1.0" encoding="utf-8"?>
<!-- Generator: Adobe Illustrator 21.0.2, SVG Export Plug-In . SVG Version: 6.00 Build 0)  -->
<svg version="1.1" xmlns="http://www.w3.org/2000/svg" xmlns:xlink="http://www.w3.org/1999/xlink" x="0px" y="0px"
	 viewBox="0 0 32 32" enable-background="new 0 0 32 32" xml:space="preserve">
<g id="Layer_6" display="none">
	<rect x="-44.385" y="-143.38" display="inline" fill="#7FFFF6" width="441.714" height="246.789"/>
</g>
<g id="Layer_4_copy_5">
	<g>
		<g>
			<polygon fill="#333333" points="16,0 2.5,0 2.5,24.5 16,32 29.5,24.5 29.5,0 			"/>
		</g>
		<g>
			<g>
				<polygon points="4.121,23.323 4.121,1.672 27.879,1.672 27.879,23.323 16,29.922 				"/>
			</g>
			<g>
				<path fill="#FF0000" d="M27.629,1.922v21.254L16,29.636l-11.629-6.46V1.922H16H27.629 M28.129,1.422H16H3.871V23.47L16,30.208
					l12.129-6.738V1.422L28.129,1.422z"/>
			</g>
		</g>
		<g>
			<g opacity="0.15">
				<polygon fill="#FFFFFF" points="3.871,1.422 28.129,1.422 28.129,7.998 3.871,14.529 				"/>
			</g>
			<g opacity="0.3">
				<polygon fill="#FFFFFF" points="3.871,1.422 28.129,1.422 28.129,4.71 3.871,11.241 				"/>
			</g>
		</g>
	</g>
	<g id="Cat_5_">
		<path fill="#FFFFFF" d="M19.082,22.493h-2.263h-2.265c0,0,0.006-1.344,0-2.265c-3.099,0.667-3.964-1.699-3.964-1.699
			c-0.566-1.132-1.132-1.699-1.132-1.699c-1.132-0.673,0-0.566,0-0.566c1.132,0,1.699,1.132,1.699,1.132
			c0.994,1.687,2.762,1.416,3.397,1.132c0-0.566,0.248-1.422,0.566-1.699c-2.473-0.279-4.532-1.699-4.532-4.53
			s0.568-3.397,1.135-3.964c-0.114-0.279-0.588-1.311,0.018-2.831c0,0,1.113,0,2.245,1.699c0.561-0.561,2.265-0.566,2.832-0.566
			c0.565,0,2.269,0.005,2.83,0.566c1.132-1.699,2.248-1.699,2.248-1.699c0.605,1.52,0.132,2.552,0.017,2.831
			c0.566,0.566,1.132,1.132,1.132,3.964s-2.056,4.251-4.53,4.53c0.319,0.276,0.566,1.251,0.566,1.699L19.082,22.493L19.082,22.493z"
			/>
	</g>
</g>
</svg>
