<?xml version="1.0" encoding="utf-8"?>
<!-- Generator: Adobe Illustrator 21.0.2, SVG Export Plug-In . SVG Version: 6.00 Build 0)  -->
<svg version="1.1" xmlns="http://www.w3.org/2000/svg" xmlns:xlink="http://www.w3.org/1999/xlink" x="0px" y="0px"
	 viewBox="0 0 32 32" enable-background="new 0 0 32 32" xml:space="preserve">
<g id="Layer_6" display="none">
	<rect x="-200.38" y="-104.391" display="inline" fill="#7FFFF6" width="441.714" height="246.789"/>
</g>
<g id="Layer_4_copy_5">
	<g>
		<g>
			<polygon fill="#333333" points="16,0 2.5,0 2.5,24.5 16,32 29.5,24.5 29.5,0 			"/>
		</g>
		<g>
			<g>
				<polygon points="4.121,23.323 4.121,1.672 27.879,1.672 27.879,23.323 16,29.923 				"/>
			</g>
			<g>
				<path fill="#FF0000" d="M27.629,1.922v21.254L16,29.636l-11.629-6.46V1.922H16H27.629 M28.129,1.422H16H3.871V23.47L16,30.208
					l12.129-6.738V1.422L28.129,1.422z"/>
			</g>
		</g>
		<g>
			<g opacity="0.15">
				<polygon fill="#FFFFFF" points="3.871,1.422 28.129,1.422 28.129,7.998 3.871,14.529 				"/>
			</g>
			<g opacity="0.3">
				<polygon fill="#FFFFFF" points="3.871,1.422 28.129,1.422 28.129,4.71 3.871,11.241 				"/>
			</g>
		</g>
	</g>
	<g>
		<path fill="#FFFFFF" d="M21.555,5.593h-11.11c-1.046,0-1.852,0.806-1.852,1.852v11.11c0,1.045,0.806,1.852,1.852,1.852h11.11
			c1.045,0,1.852-0.806,1.852-1.852V7.445C23.407,6.399,22.6,5.593,21.555,5.593z M16.011,10.09c1.643,0,2.974,1.29,2.974,2.882
			c0,1.591-1.331,2.882-2.974,2.882c-1.642,0-2.973-1.291-2.973-2.882C13.038,11.38,14.37,10.09,16.011,10.09z M21.555,18.092
			c0,0.325-0.139,0.463-0.463,0.463H10.908c-0.324,0-0.463-0.138-0.463-0.463v-6.481l1.154,0.251
			c-0.124,0.403-0.191,0.829-0.191,1.271c0,2.462,2.062,4.46,4.603,4.46c2.542,0,4.603-1.997,4.603-4.46
			c0-0.442-0.067-0.868-0.191-1.271l1.132-0.251V18.092z M21.555,9.76c0,0.256-0.207,0.463-0.463,0.463H19.24
			c-0.256,0-0.463-0.207-0.463-0.463V7.908c0-0.256,0.207-0.463,0.463-0.463h1.852c0.256,0,0.463,0.207,0.463,0.463V9.76z"/>
	</g>
</g>
</svg>
