<?xml version="1.0" encoding="utf-8"?>
<!-- Generator: Adobe Illustrator 21.0.2, SVG Export Plug-In . SVG Version: 6.00 Build 0)  -->
<svg version="1.1" xmlns="http://www.w3.org/2000/svg" xmlns:xlink="http://www.w3.org/1999/xlink" x="0px" y="0px"
	 viewBox="0 0 32 32" enable-background="new 0 0 32 32" xml:space="preserve">
<g id="Layer_6" display="none">
	<rect x="-83.38" y="-104.391" display="inline" fill="#7FFFF6" width="441.714" height="246.789"/>
</g>
<g id="Layer_4_copy_5">
	<g>
		<g>
			<polygon fill="#333333" points="16,0 2.5,0 2.5,24.5 16,32 29.5,24.5 29.5,0 			"/>
		</g>
		<g>
			<g>
				<polygon points="4.121,23.323 4.121,1.672 27.879,1.672 27.879,23.323 16,29.923 				"/>
			</g>
			<g>
				<path fill="#FF0000" d="M27.629,1.922v21.254L16,29.636l-11.629-6.46V1.922H16H27.629 M28.129,1.422H16H3.871V23.47L16,30.208
					l12.129-6.738V1.422L28.129,1.422z"/>
			</g>
		</g>
		<g>
			<g opacity="0.15">
				<polygon fill="#FFFFFF" points="3.871,1.422 28.129,1.422 28.129,7.998 3.871,14.529 				"/>
			</g>
			<g opacity="0.3">
				<polygon fill="#FFFFFF" points="3.871,1.422 28.129,1.422 28.129,4.71 3.871,11.241 				"/>
			</g>
		</g>
	</g>
	<g>
		<g>
			<path fill="#FFFFFF" d="M24.514,10.108c0,0-0.169-1.278-0.69-1.841c-0.661-0.738-1.401-0.742-1.741-0.784
				c-2.432-0.188-6.079-0.188-6.079-0.188h-0.008c0,0-3.647,0-6.079,0.188C9.577,7.525,8.837,7.529,8.176,8.267
				c-0.52,0.563-0.69,1.841-0.69,1.841s-0.174,1.5-0.174,2.999v1.406c0,1.501,0.174,3,0.174,3s0.169,1.278,0.69,1.839
				c0.662,0.738,1.529,0.715,1.916,0.792C11.482,20.287,16,20.331,16,20.331s3.651-0.006,6.083-0.193
				c0.339-0.044,1.08-0.048,1.741-0.785c0.52-0.562,0.69-1.839,0.69-1.839s0.174-1.5,0.174-3v-1.406
				C24.688,11.607,24.514,10.108,24.514,10.108z M13.83,17.072v-6.518l5.432,3.259L13.83,17.072z"/>
		</g>
	</g>
</g>
</svg>
